<?xml version="1.0" encoding="UTF-8"?>
<svg id="Camada_1" data-name="Camada 1" xmlns="http://www.w3.org/2000/svg" viewBox="0 0 1536.8 1400.34">
  <defs>
    <style>
      .cls-1 {
        fill: #fff;
      }
    </style>
  </defs>
  <path class="cls-1" d="M510.5,796.52l-186.06,102.03c-39.1,21.45-63.41,62.5-63.41,107.1v260.13c0,5.26,5.63,8.59,10.24,6.06l358.16-196.41c58.57-32.12,98.23-89.15,109.04-153.76l-28.37-15.7-199.59-109.45Z"/>
  <path class="cls-1" d="M741.58,669.77v-109.28c0-59.52-32.44-114.31-84.63-142.93L113.91,119.77c-6.15-3.37-13.67,1.08-13.67,8.09v272.98c0,105.27,57.37,202.17,149.67,252.78l260.58,142.9,200.09-109.73-.02-.03,31-17Z"/>
  <path class="cls-1" d="M1013.03,796.52l186.06,102.03c39.1,21.45,63.41,62.5,63.41,107.1v260.13c0,5.26-5.63,8.59-10.24,6.06l-358.16-196.41c-58.57-32.12-98.23-89.15-109.04-153.76l28.37-15.7,199.59-109.45Z"/>
  <path class="cls-1" d="M781.95,669.77v-109.28c0-59.52,32.44-114.31,84.63-142.93L1409.61,119.77c6.15-3.37,13.67,1.08,13.67,8.09v272.98c0,105.27-57.37,202.17-149.67,252.78l-260.58,142.9-200.09-109.73.02-.03-31-17Z"/>
</svg>

